<?xml version="1.0" encoding="UTF-8"?>
<svg width="141px" height="51px" viewBox="0 0 141 51" version="1.1" xmlns="http://www.w3.org/2000/svg" xmlns:xlink="http://www.w3.org/1999/xlink">
    <!-- Generator: Sketch 56.2 (81672) - https://sketch.com -->
    <title>proof</title>
    <desc>Created with Sketch.</desc>
    <g id="Page-1" stroke="none" stroke-width="1" fill="none" fill-rule="evenodd">
        <g id="color" fill-rule="nonzero">
            <g id="proof">
                <path d="M138.2,0 C138.833,0 139.35,0.1833 139.75,0.55 C140.15,0.9167 140.35,1.3833 140.35,1.95 C140.35,2.4833 140.15,2.9333 139.75,3.3 C139.35,3.6667 138.833,3.85 138.2,3.85 C136.8,3.85 135.617,4.175 134.65,4.825 C133.683,5.475 132.95,6.375 132.45,7.525 C131.95,8.675 131.7,10 131.7,11.5 L131.7,12.699 L137.4,12.7 C138,12.7 138.475,12.875 138.825,13.225 C139.175,13.575 139.35,14.0167 139.35,14.55 C139.35,15.0833 139.175,15.5167 138.825,15.85 C138.475,16.1833 138,16.35 137.4,16.35 L131.7,16.349 L131.7,36.9 C131.7,37.567 131.508,38.092 131.125,38.475 C130.742,38.858 130.2,39.05 129.5,39.05 C128.967,39.05 128.492,38.858 128.075,38.475 C127.658,38.092 127.45,37.567 127.45,36.9 L127.45,16.349 L124.6,16.35 C124,16.35 123.525,16.1833 123.175,15.85 C122.825,15.5167 122.65,15.0833 122.65,14.55 C122.65,14.0167 122.825,13.575 123.175,13.225 C123.525,12.875 124,12.7 124.6,12.7 L127.45,12.699 L127.45,11.8 C127.45,9.4333 127.875,7.3667 128.725,5.6 C129.575,3.8333 130.808,2.4583 132.425,1.475 C134.042,0.4917 135.967,0 138.2,0 Z" id="Path" fill="#393A3D"></path>
                <path d="M104.9,11.45 C107.567,11.45 109.933,12.05 112,13.25 C114.067,14.45 115.7,16.1 116.9,18.2 C118.1,20.3 118.717,22.7 118.75,25.4 C118.75,28.067 118.15,30.45 116.95,32.55 C115.75,34.65 114.108,36.3 112.025,37.5 C109.942,38.7 107.567,39.3 104.9,39.3 C102.2,39.3 99.808,38.7 97.725,37.5 C95.642,36.3 94,34.65 92.8,32.55 C91.6,30.45 91,28.067 91,25.4 C91,22.7 91.6,20.3 92.8,18.2 C94,16.1 95.642,14.45 97.725,13.25 C99.808,12.05 102.2,11.45 104.9,11.45 Z M104.9,15.3 C103.033,15.3 101.367,15.7333 99.9,16.6 C98.433,17.4667 97.275,18.6667 96.425,20.2 C95.575,21.733 95.15,23.467 95.15,25.4 C95.15,27.333 95.575,29.058 96.425,30.575 C97.275,32.092 98.433,33.283 99.9,34.15 C101.367,35.017 103.033,35.45 104.9,35.45 C106.767,35.45 108.433,35.017 109.9,34.15 C111.367,33.283 112.508,32.092 113.325,30.575 C114.142,29.058 114.55,27.333 114.55,25.4 C114.55,23.467 114.142,21.733 113.325,20.2 C112.508,18.6667 111.367,17.4667 109.9,16.6 C108.433,15.7333 106.767,15.3 104.9,15.3 Z" id="Shape" fill="#00A6A4"></path>
                <path d="M69.1,11.45 C71.767,11.45 74.133,12.05 76.2,13.25 C78.267,14.45 79.9,16.1 81.1,18.2 C82.3,20.3 82.917,22.7 82.95,25.4 C82.95,28.067 82.35,30.45 81.15,32.55 C79.95,34.65 78.308,36.3 76.225,37.5 C74.142,38.7 71.767,39.3 69.1,39.3 C66.4,39.3 64.008,38.7 61.925,37.5 C59.842,36.3 58.2,34.65 57,32.55 C55.8,30.45 55.2,28.067 55.2,25.4 C55.2,22.7 55.8,20.3 57,18.2 C58.2,16.1 59.842,14.45 61.925,13.25 C64.008,12.05 66.4,11.45 69.1,11.45 Z M69.1,15.3 C67.233,15.3 65.567,15.7333 64.1,16.6 C62.633,17.4667 61.475,18.6667 60.625,20.2 C59.775,21.733 59.35,23.467 59.35,25.4 C59.35,27.333 59.775,29.058 60.625,30.575 C61.475,32.092 62.633,33.283 64.1,34.15 C65.567,35.017 67.233,35.45 69.1,35.45 C70.967,35.45 72.633,35.017 74.1,34.15 C75.567,33.283 76.708,32.092 77.525,30.575 C78.342,29.058 78.75,27.333 78.75,25.4 C78.75,23.467 78.342,21.733 77.525,20.2 C76.708,18.6667 75.567,17.4667 74.1,16.6 C72.633,15.7333 70.967,15.3 69.1,15.3 Z" id="Shape" fill="#00A6A4"></path>
                <path d="M13.8,11.45 C16.467,11.45 18.842,12.0583 20.925,13.275 C23.008,14.4917 24.658,16.15 25.875,18.25 C27.092,20.35 27.7,22.733 27.7,25.4 C27.7,28.033 27.125,30.4 25.975,32.5 C24.825,34.6 23.25,36.258 21.25,37.475 C19.25,38.692 16.983,39.3 14.45,39.3 C12.3167,39.3 10.3667,38.842 8.6,37.925 C6.8333,37.008 5.3833,35.8 4.25,34.3 L4.25,48.6 C4.25,49.233 4.0583,49.75 3.675,50.15 C3.2917,50.55 2.7833,50.75 2.15,50.75 C1.5167,50.75 1,50.55 0.6,50.15 C0.2,49.75 0,49.233 0,48.6 L0,25.25 C0.0333,22.65 0.6583,20.308 1.875,18.225 C3.0917,16.1417 4.7333,14.4917 6.8,13.275 C8.8667,12.0583 11.2,11.45 13.8,11.45 Z M13.8,15.3 C12,15.3 10.3583,15.7417 8.875,16.625 C7.3917,17.5083 6.2333,18.7083 5.4,20.225 C4.5667,21.742 4.15,23.467 4.15,25.4 C4.15,27.3 4.5667,29.017 5.4,30.55 C6.2333,32.083 7.3917,33.283 8.875,34.15 C10.3583,35.017 12,35.45 13.8,35.45 C15.667,35.45 17.333,35.017 18.8,34.15 C20.267,33.283 21.425,32.083 22.275,30.55 C23.125,29.017 23.55,27.3 23.55,25.4 C23.55,23.467 23.125,21.742 22.275,20.225 C21.425,18.7083 20.267,17.5083 18.8,16.625 C17.333,15.7417 15.667,15.3 13.8,15.3 Z" id="Shape" fill="#393A3D"></path>
                <path d="M48,11.4 C49.7,11.4 50.992,11.65 51.875,12.15 C52.758,12.65 53.083,13.3333 52.85,14.2 C52.75,14.7 52.542,15.0417 52.225,15.225 C51.908,15.4083 51.542,15.5 51.125,15.5 C50.708,15.5 50.233,15.4833 49.7,15.45 C47.767,15.1833 46.033,15.2917 44.5,15.775 C42.967,16.2583 41.75,17.05 40.85,18.15 C39.95,19.25 39.5,20.567 39.5,22.1 L39.499,22.1 L39.5,36.95 C39.5,37.617 39.317,38.133 38.95,38.5 C38.583,38.867 38.067,39.05 37.4,39.05 C36.733,39.05 36.217,38.867 35.85,38.5 C35.483,38.133 35.3,37.617 35.3,36.95 L35.3,13.8 C35.3,13.1333 35.483,12.6167 35.85,12.25 C36.217,11.8833 36.733,11.7 37.4,11.7 C38.067,11.7 38.583,11.8833 38.95,12.25 C39.317,12.6167 39.5,13.1333 39.5,13.8 L39.499,15.568 C40.366,14.4422 41.416,13.5196 42.65,12.8 C44.25,11.8667 46.033,11.4 48,11.4 Z" id="Path" fill="#393A3D"></path>
                <path d="M82.431,26.693 C83.934,25.379 85.468,24.752 87.086,24.752 C88.704,24.752 90.237,25.379 91.741,26.693 C92.468,27.329 93.574,27.254 94.21,26.527 C94.846,25.799 94.772,24.693 94.044,24.057 C91.927,22.208 89.59,21.252 87.086,21.252 C84.582,21.252 82.244,22.208 80.128,24.057 C79.4,24.693 79.326,25.799 79.962,26.527 C80.598,27.254 81.703,27.329 82.431,26.693 Z" id="Path" fill="#00A6A4"></path>
            </g>
        </g>
    </g>
</svg>