<?xml version="1.0" encoding="UTF-8"?>
<svg width="156px" height="73px" viewBox="0 0 156 73" version="1.1" xmlns="http://www.w3.org/2000/svg" xmlns:xlink="http://www.w3.org/1999/xlink">
    <!-- Generator: Sketch 56.2 (81672) - https://sketch.com -->
    <title>color__with-text</title>
    <desc>Created with Sketch.</desc>
    <g id="Page-1" stroke="none" stroke-width="1" fill="none" fill-rule="evenodd">
        <g id="color__with-text" fill-rule="nonzero">
            <path d="M146.2,0 C146.833,0 147.35,0.1833 147.75,0.55 C148.15,0.9167 148.35,1.3833 148.35,1.95 C148.35,2.4833 148.15,2.9333 147.75,3.3 C147.35,3.6667 146.833,3.85 146.2,3.85 C144.8,3.85 143.617,4.175 142.65,4.825 C141.683,5.475 140.95,6.375 140.45,7.525 C139.95,8.675 139.7,10 139.7,11.5 L139.7,12.699 L145.4,12.7 C146,12.7 146.475,12.875 146.825,13.225 C147.175,13.575 147.35,14.0167 147.35,14.55 C147.35,15.0833 147.175,15.5167 146.825,15.85 C146.475,16.1833 146,16.35 145.4,16.35 L139.7,16.349 L139.7,36.9 C139.7,37.567 139.508,38.092 139.125,38.475 C138.742,38.858 138.2,39.05 137.5,39.05 C136.967,39.05 136.492,38.858 136.075,38.475 C135.658,38.092 135.45,37.567 135.45,36.9 L135.45,16.349 L132.6,16.35 C132,16.35 131.525,16.1833 131.175,15.85 C130.825,15.5167 130.65,15.0833 130.65,14.55 C130.65,14.0167 130.825,13.575 131.175,13.225 C131.525,12.875 132,12.7 132.6,12.7 L135.45,12.699 L135.45,11.8 C135.45,9.4333 135.875,7.3667 136.725,5.6 C137.575,3.8333 138.808,2.4583 140.425,1.475 C142.042,0.4917 143.967,0 146.2,0 Z" id="Path" fill="#393A3D"></path>
            <path d="M112.9,11.45 C115.567,11.45 117.933,12.05 120,13.25 C122.067,14.45 123.7,16.1 124.9,18.2 C126.1,20.3 126.717,22.7 126.75,25.4 C126.75,28.0667 126.15,30.45 124.95,32.55 C123.75,34.65 122.108,36.3 120.025,37.5 C117.942,38.7 115.567,39.3 112.9,39.3 C110.2,39.3 107.808,38.7 105.725,37.5 C103.642,36.3 102,34.65 100.8,32.55 C99.6,30.45 99,28.0667 99,25.4 C99,22.7 99.6,20.3 100.8,18.2 C102,16.1 103.642,14.45 105.725,13.25 C107.808,12.05 110.2,11.45 112.9,11.45 Z M112.9,15.3 C111.033,15.3 109.367,15.7333 107.9,16.6 C106.433,17.4667 105.275,18.6667 104.425,20.2 C103.575,21.7333 103.15,23.4667 103.15,25.4 C103.15,27.3333 103.575,29.0583 104.425,30.575 C105.275,32.0917 106.433,33.2833 107.9,34.15 C109.367,35.0167 111.033,35.45 112.9,35.45 C114.767,35.45 116.433,35.0167 117.9,34.15 C119.367,33.2833 120.508,32.0917 121.325,30.575 C122.142,29.0583 122.55,27.3333 122.55,25.4 C122.55,23.4667 122.142,21.7333 121.325,20.2 C120.508,18.6667 119.367,17.4667 117.9,16.6 C116.433,15.7333 114.767,15.3 112.9,15.3 Z" id="Shape" fill="#00A6A4"></path>
            <path d="M77.1,11.45 C79.767,11.45 82.133,12.05 84.2,13.25 C86.267,14.45 87.9,16.1 89.1,18.2 C90.3,20.3 90.917,22.7 90.95,25.4 C90.95,28.0667 90.35,30.45 89.15,32.55 C87.95,34.65 86.308,36.3 84.225,37.5 C82.142,38.7 79.767,39.3 77.1,39.3 C74.4,39.3 72.008,38.7 69.925,37.5 C67.842,36.3 66.2,34.65 65,32.55 C63.8,30.45 63.2,28.0667 63.2,25.4 C63.2,22.7 63.8,20.3 65,18.2 C66.2,16.1 67.842,14.45 69.925,13.25 C72.008,12.05 74.4,11.45 77.1,11.45 Z M77.1,15.3 C75.233,15.3 73.567,15.7333 72.1,16.6 C70.633,17.4667 69.475,18.6667 68.625,20.2 C67.775,21.7333 67.35,23.4667 67.35,25.4 C67.35,27.3333 67.775,29.0583 68.625,30.575 C69.475,32.0917 70.633,33.2833 72.1,34.15 C73.567,35.0167 75.233,35.45 77.1,35.45 C78.967,35.45 80.633,35.0167 82.1,34.15 C83.567,33.2833 84.708,32.0917 85.525,30.575 C86.342,29.0583 86.75,27.3333 86.75,25.4 C86.75,23.4667 86.342,21.7333 85.525,20.2 C84.708,18.6667 83.567,17.4667 82.1,16.6 C80.633,15.7333 78.967,15.3 77.1,15.3 Z" id="Shape" fill="#00A6A4"></path>
            <path d="M21.8,11.45 C24.467,11.45 26.842,12.0583 28.925,13.275 C31.008,14.4917 32.658,16.15 33.875,18.25 C35.092,20.35 35.7,22.7333 35.7,25.4 C35.7,28.0333 35.125,30.4 33.975,32.5 C32.825,34.6 31.25,36.258 29.25,37.475 C27.25,38.692 24.983,39.3 22.45,39.3 C20.3167,39.3 18.3667,38.842 16.6,37.925 C14.8333,37.008 13.3833,35.8 12.25,34.3 L12.25,48.6 C12.25,49.233 12.0583,49.75 11.675,50.15 C11.2917,50.55 10.7833,50.75 10.15,50.75 C9.5167,50.75 9,50.55 8.6,50.15 C8.2,49.75 8,49.233 8,48.6 L8,25.25 C8.0333,22.65 8.6583,20.3083 9.875,18.225 C11.0917,16.1417 12.7333,14.4917 14.8,13.275 C16.8667,12.0583 19.2,11.45 21.8,11.45 Z M21.8,15.3 C20,15.3 18.3583,15.7417 16.875,16.625 C15.3917,17.5083 14.2333,18.7083 13.4,20.225 C12.5667,21.7417 12.15,23.4667 12.15,25.4 C12.15,27.3 12.5667,29.0167 13.4,30.55 C14.2333,32.0833 15.3917,33.2833 16.875,34.15 C18.3583,35.0167 20,35.45 21.8,35.45 C23.667,35.45 25.333,35.0167 26.8,34.15 C28.267,33.2833 29.425,32.0833 30.275,30.55 C31.125,29.0167 31.55,27.3 31.55,25.4 C31.55,23.4667 31.125,21.7417 30.275,20.225 C29.425,18.7083 28.267,17.5083 26.8,16.625 C25.333,15.7417 23.667,15.3 21.8,15.3 Z" id="Shape" fill="#393A3D"></path>
            <path d="M56,11.4 C57.7,11.4 58.992,11.65 59.875,12.15 C60.758,12.65 61.083,13.3333 60.85,14.2 C60.75,14.7 60.542,15.0417 60.225,15.225 C59.908,15.4083 59.542,15.5 59.125,15.5 C58.708,15.5 58.233,15.4833 57.7,15.45 C55.767,15.1833 54.033,15.2917 52.5,15.775 C50.967,16.2583 49.75,17.05 48.85,18.15 C47.95,19.25 47.5,20.5667 47.5,22.1 L47.499,22.1 L47.5,36.95 C47.5,37.617 47.317,38.133 46.95,38.5 C46.583,38.867 46.067,39.05 45.4,39.05 C44.733,39.05 44.217,38.867 43.85,38.5 C43.483,38.133 43.3,37.617 43.3,36.95 L43.3,13.8 C43.3,13.1333 43.483,12.6167 43.85,12.25 C44.217,11.8833 44.733,11.7 45.4,11.7 C46.067,11.7 46.583,11.8833 46.95,12.25 C47.317,12.6167 47.5,13.1333 47.5,13.8 L47.499,15.568 C48.366,14.4422 49.416,13.5196 50.65,12.8 C52.25,11.8667 54.033,11.4 56,11.4 Z" id="Path" fill="#393A3D"></path>
            <path d="M90.431,26.6927 C91.934,25.3788 93.468,24.7523 95.086,24.7523 C96.704,24.7523 98.237,25.3788 99.741,26.6927 C100.468,27.3287 101.574,27.2544 102.21,26.5266 C102.846,25.7989 102.772,24.6933 102.044,24.0573 C99.927,22.2076 97.59,21.2523 95.086,21.2523 C92.582,21.2523 90.244,22.2076 88.128,24.0573 C87.4,24.6933 87.326,25.7989 87.962,26.5266 C88.598,27.2544 89.703,27.3287 90.431,26.6927 Z" id="Path" fill="#00A6A4"></path>
            <path d="M0.4241,70 C0.2554,70 0.1344,69.93 0.0611,69.791 C-0.0122,69.652 -0.0196,69.516 0.0391,69.384 L3.2731,61.706 C3.3538,61.508 3.4931,61.409 3.6911,61.409 C3.8818,61.409 4.0174,61.508 4.0981,61.706 L7.3431,69.395 C7.4091,69.534 7.3981,69.67 7.3101,69.802 C7.2294,69.934 7.1121,70 6.9581,70 C6.8701,70 6.7894,69.978 6.7161,69.934 C6.6501,69.89 6.5951,69.824 6.5511,69.736 L3.5261,62.399 L3.8671,62.399 L0.8201,69.736 C0.7834,69.824 0.7284,69.89 0.6551,69.934 C0.5891,69.978 0.5121,70 0.4241,70 Z M1.1501,67.954 L1.4801,67.217 L5.9461,67.217 L6.2761,67.954 L1.1501,67.954 Z" id="Shape" fill="#393A3D"></path>
            <path d="M14.0981,70 C13.7095,70 13.3611,69.908 13.0531,69.725 C12.7525,69.542 12.5141,69.292 12.3381,68.977 C12.1621,68.654 12.0741,68.288 12.0741,67.877 L12.0741,62.498 C12.0741,62.373 12.1108,62.271 12.1841,62.19 C12.2648,62.109 12.3675,62.069 12.4921,62.069 C12.6168,62.069 12.7195,62.109 12.8001,62.19 C12.8808,62.271 12.9211,62.373 12.9211,62.498 L12.9211,67.877 C12.9211,68.251 13.0311,68.559 13.2511,68.801 C13.4711,69.036 13.7535,69.153 14.0981,69.153 L14.3951,69.153 C14.5125,69.153 14.6078,69.193 14.6811,69.274 C14.7545,69.355 14.7911,69.457 14.7911,69.582 C14.7911,69.707 14.7471,69.809 14.6591,69.89 C14.5711,69.963 14.4611,70 14.3291,70 L14.0981,70 Z M11.3591,64.94 C11.2491,64.94 11.1575,64.907 11.0841,64.841 C11.0108,64.768 10.9741,64.68 10.9741,64.577 C10.9741,64.467 11.0108,64.379 11.0841,64.313 C11.1575,64.24 11.2491,64.203 11.3591,64.203 L14.1641,64.203 C14.2741,64.203 14.3658,64.24 14.4391,64.313 C14.5125,64.379 14.5491,64.467 14.5491,64.577 C14.5491,64.68 14.5125,64.768 14.4391,64.841 C14.3658,64.907 14.2741,64.94 14.1641,64.94 L11.3591,64.94 Z" id="Shape" fill="#393A3D"></path>
            <path d="M18.8979,70.055 C18.3039,70.055 17.7759,69.927 17.3139,69.67 C16.8593,69.406 16.4999,69.043 16.2359,68.581 C15.9793,68.119 15.8509,67.591 15.8509,66.997 C15.8509,66.396 15.9719,65.868 16.2139,65.413 C16.4633,64.951 16.8043,64.588 17.2369,64.324 C17.6696,64.06 18.1683,63.928 18.7329,63.928 C19.2903,63.928 19.7743,64.056 20.1849,64.313 C20.6029,64.562 20.9256,64.911 21.153,65.358 C21.38,65.805 21.494,66.315 21.494,66.887 C21.494,67.004 21.457,67.1 21.384,67.173 C21.311,67.239 21.215,67.272 21.098,67.272 L16.4229,67.272 L16.4229,66.568 L21.186,66.568 L20.7129,66.909 C20.7203,66.484 20.6433,66.102 20.4819,65.765 C20.3206,65.428 20.0896,65.164 19.7889,64.973 C19.4956,64.782 19.1436,64.687 18.7329,64.687 C18.3149,64.687 17.9483,64.786 17.6329,64.984 C17.3176,65.182 17.0719,65.457 16.8959,65.809 C16.7273,66.154 16.6429,66.55 16.6429,66.997 C16.6429,67.444 16.7383,67.84 16.9289,68.185 C17.1269,68.53 17.3946,68.801 17.7319,68.999 C18.0693,69.197 18.4579,69.296 18.8979,69.296 C19.1619,69.296 19.4259,69.252 19.6899,69.164 C19.9613,69.069 20.1776,68.951 20.3389,68.812 C20.4196,68.746 20.5113,68.713 20.6139,68.713 C20.7166,68.706 20.8046,68.731 20.8779,68.79 C20.9733,68.878 21.021,68.973 21.021,69.076 C21.028,69.179 20.9879,69.267 20.8999,69.34 C20.6579,69.545 20.3499,69.718 19.9759,69.857 C19.6019,69.989 19.2426,70.055 18.8979,70.055 Z" id="Path" fill="#393A3D"></path>
            <path d="M25.028,70.055 C24.595,70.055 24.166,69.982 23.741,69.835 C23.315,69.688 22.971,69.468 22.707,69.175 C22.626,69.087 22.593,68.988 22.608,68.878 C22.622,68.768 22.677,68.673 22.773,68.592 C22.875,68.519 22.982,68.489 23.092,68.504 C23.202,68.519 23.293,68.566 23.367,68.647 C23.543,68.852 23.774,69.01 24.06,69.12 C24.353,69.23 24.676,69.285 25.028,69.285 C25.57,69.285 25.963,69.193 26.205,69.01 C26.447,68.819 26.571,68.592 26.579,68.328 C26.579,68.064 26.454,67.848 26.205,67.679 C25.955,67.503 25.545,67.367 24.973,67.272 C24.232,67.155 23.689,66.949 23.345,66.656 C23,66.363 22.828,66.014 22.828,65.611 C22.828,65.237 22.927,64.925 23.125,64.676 C23.323,64.427 23.587,64.24 23.917,64.115 C24.247,63.99 24.61,63.928 25.006,63.928 C25.497,63.928 25.919,64.012 26.271,64.181 C26.63,64.35 26.92,64.577 27.14,64.863 C27.213,64.958 27.242,65.057 27.228,65.16 C27.213,65.263 27.154,65.347 27.052,65.413 C26.964,65.464 26.861,65.483 26.744,65.468 C26.634,65.446 26.538,65.391 26.458,65.303 C26.274,65.09 26.062,64.936 25.82,64.841 C25.578,64.738 25.299,64.687 24.984,64.687 C24.58,64.687 24.258,64.771 24.016,64.94 C23.774,65.101 23.653,65.307 23.653,65.556 C23.653,65.725 23.697,65.871 23.785,65.996 C23.88,66.121 24.038,66.231 24.258,66.326 C24.485,66.421 24.8,66.502 25.204,66.568 C25.754,66.656 26.186,66.788 26.502,66.964 C26.824,67.133 27.052,67.334 27.184,67.569 C27.323,67.796 27.393,68.046 27.393,68.317 C27.393,68.662 27.29,68.966 27.085,69.23 C26.887,69.487 26.608,69.688 26.249,69.835 C25.897,69.982 25.49,70.055 25.028,70.055 Z" id="Path" fill="#393A3D"></path>
            <path d="M31.21,70 C30.822,70 30.473,69.908 30.165,69.725 C29.865,69.542 29.626,69.292 29.45,68.977 C29.274,68.654 29.186,68.288 29.186,67.877 L29.186,62.498 C29.186,62.373 29.223,62.271 29.296,62.19 C29.377,62.109 29.48,62.069 29.604,62.069 C29.729,62.069 29.832,62.109 29.912,62.19 C29.993,62.271 30.033,62.373 30.033,62.498 L30.033,67.877 C30.033,68.251 30.143,68.559 30.363,68.801 C30.583,69.036 30.866,69.153 31.21,69.153 L31.507,69.153 C31.625,69.153 31.72,69.193 31.793,69.274 C31.867,69.355 31.903,69.457 31.903,69.582 C31.903,69.707 31.859,69.809 31.771,69.89 C31.683,69.963 31.573,70 31.441,70 L31.21,70 Z M28.471,64.94 C28.361,64.94 28.27,64.907 28.196,64.841 C28.123,64.768 28.086,64.68 28.086,64.577 C28.086,64.467 28.123,64.379 28.196,64.313 C28.27,64.24 28.361,64.203 28.471,64.203 L31.276,64.203 C31.386,64.203 31.478,64.24 31.551,64.313 C31.625,64.379 31.661,64.467 31.661,64.577 C31.661,64.68 31.625,64.768 31.551,64.841 C31.478,64.907 31.386,64.94 31.276,64.94 L28.471,64.94 Z" id="Shape" fill="#393A3D"></path>
            <path d="M36.857,66.293 C36.879,65.838 36.996,65.431 37.209,65.072 C37.429,64.713 37.711,64.43 38.056,64.225 C38.408,64.02 38.797,63.917 39.222,63.917 C39.559,63.917 39.82,63.965 40.003,64.06 C40.186,64.155 40.256,64.295 40.212,64.478 C40.183,64.588 40.131,64.661 40.058,64.698 C39.992,64.735 39.908,64.749 39.805,64.742 C39.71,64.735 39.6,64.727 39.475,64.72 C39.064,64.683 38.698,64.727 38.375,64.852 C38.06,64.969 37.807,65.153 37.616,65.402 C37.433,65.651 37.341,65.948 37.341,66.293 L36.857,66.293 Z M36.923,70 C36.791,70 36.688,69.963 36.615,69.89 C36.542,69.817 36.505,69.714 36.505,69.582 L36.505,64.401 C36.505,64.269 36.542,64.166 36.615,64.093 C36.688,64.02 36.791,63.983 36.923,63.983 C37.055,63.983 37.158,64.02 37.231,64.093 C37.304,64.166 37.341,64.269 37.341,64.401 L37.341,69.582 C37.341,69.714 37.304,69.817 37.231,69.89 C37.158,69.963 37.055,70 36.923,70 Z" id="Shape" fill="#393A3D"></path>
            <path d="M44.161,70.066 C43.64,70.066 43.175,69.96 42.764,69.747 C42.353,69.527 42.027,69.208 41.785,68.79 C41.55,68.372 41.433,67.862 41.433,67.261 L41.433,64.401 C41.433,64.284 41.473,64.185 41.554,64.104 C41.635,64.023 41.734,63.983 41.851,63.983 C41.976,63.983 42.078,64.023 42.159,64.104 C42.24,64.185 42.28,64.284 42.28,64.401 L42.28,67.261 C42.28,67.716 42.364,68.09 42.533,68.383 C42.709,68.676 42.944,68.896 43.237,69.043 C43.538,69.19 43.875,69.263 44.249,69.263 C44.608,69.263 44.931,69.193 45.217,69.054 C45.51,68.915 45.741,68.724 45.91,68.482 C46.079,68.24 46.163,67.965 46.163,67.657 L46.768,67.657 C46.746,68.119 46.618,68.533 46.383,68.9 C46.156,69.259 45.848,69.545 45.459,69.758 C45.07,69.963 44.638,70.066 44.161,70.066 Z M46.581,70 C46.456,70 46.354,69.963 46.273,69.89 C46.2,69.809 46.163,69.703 46.163,69.571 L46.163,64.401 C46.163,64.276 46.2,64.177 46.273,64.104 C46.354,64.023 46.456,63.983 46.581,63.983 C46.706,63.983 46.808,64.023 46.889,64.104 C46.97,64.177 47.01,64.276 47.01,64.401 L47.01,69.571 C47.01,69.703 46.97,69.809 46.889,69.89 C46.808,69.963 46.706,70 46.581,70 Z" id="Shape" fill="#393A3D"></path>
            <path d="M54.146,70 C54.022,70 53.919,69.96 53.838,69.879 C53.758,69.798 53.717,69.699 53.717,69.582 L53.717,66.722 C53.717,66.267 53.629,65.893 53.453,65.6 C53.285,65.307 53.05,65.087 52.749,64.94 C52.456,64.793 52.122,64.72 51.748,64.72 C51.389,64.72 51.063,64.79 50.769,64.929 C50.483,65.068 50.256,65.259 50.087,65.501 C49.919,65.743 49.834,66.018 49.834,66.326 L49.229,66.326 C49.244,65.864 49.369,65.453 49.603,65.094 C49.838,64.727 50.15,64.441 50.538,64.236 C50.927,64.023 51.36,63.917 51.836,63.917 C52.357,63.917 52.823,64.027 53.233,64.247 C53.644,64.46 53.967,64.775 54.201,65.193 C54.443,65.611 54.564,66.121 54.564,66.722 L54.564,69.582 C54.564,69.699 54.524,69.798 54.443,69.879 C54.363,69.96 54.264,70 54.146,70 Z M49.416,70 C49.284,70 49.178,69.963 49.097,69.89 C49.024,69.809 48.987,69.707 48.987,69.582 L48.987,64.412 C48.987,64.28 49.024,64.177 49.097,64.104 C49.178,64.023 49.284,63.983 49.416,63.983 C49.541,63.983 49.64,64.023 49.713,64.104 C49.794,64.177 49.834,64.28 49.834,64.412 L49.834,69.582 C49.834,69.707 49.794,69.809 49.713,69.89 C49.64,69.963 49.541,70 49.416,70 Z" id="Shape" fill="#393A3D"></path>
            <path d="M61.591,70 C61.466,70 61.363,69.96 61.283,69.879 C61.202,69.798 61.162,69.699 61.162,69.582 L61.162,66.722 C61.162,66.267 61.074,65.893 60.898,65.6 C60.729,65.307 60.494,65.087 60.194,64.94 C59.9,64.793 59.567,64.72 59.193,64.72 C58.833,64.72 58.507,64.79 58.214,64.929 C57.928,65.068 57.7,65.259 57.532,65.501 C57.363,65.743 57.279,66.018 57.279,66.326 L56.674,66.326 C56.688,65.864 56.813,65.453 57.048,65.094 C57.282,64.727 57.594,64.441 57.983,64.236 C58.371,64.023 58.804,63.917 59.281,63.917 C59.801,63.917 60.267,64.027 60.678,64.247 C61.088,64.46 61.411,64.775 61.646,65.193 C61.888,65.611 62.009,66.121 62.009,66.722 L62.009,69.582 C62.009,69.699 61.968,69.798 61.888,69.879 C61.807,69.96 61.708,70 61.591,70 Z M56.861,70 C56.729,70 56.622,69.963 56.542,69.89 C56.468,69.809 56.432,69.707 56.432,69.582 L56.432,64.412 C56.432,64.28 56.468,64.177 56.542,64.104 C56.622,64.023 56.729,63.983 56.861,63.983 C56.985,63.983 57.084,64.023 57.158,64.104 C57.238,64.177 57.279,64.28 57.279,64.412 L57.279,69.582 C57.279,69.707 57.238,69.809 57.158,69.89 C57.084,69.963 56.985,70 56.861,70 Z" id="Shape" fill="#393A3D"></path>
            <path d="M66.604,70.055 C66.01,70.055 65.482,69.927 65.02,69.67 C64.565,69.406 64.206,69.043 63.942,68.581 C63.685,68.119 63.557,67.591 63.557,66.997 C63.557,66.396 63.678,65.868 63.92,65.413 C64.169,64.951 64.51,64.588 64.943,64.324 C65.376,64.06 65.874,63.928 66.439,63.928 C66.996,63.928 67.48,64.056 67.891,64.313 C68.309,64.562 68.632,64.911 68.859,65.358 C69.086,65.805 69.2,66.315 69.2,66.887 C69.2,67.004 69.163,67.1 69.09,67.173 C69.017,67.239 68.921,67.272 68.804,67.272 L64.129,67.272 L64.129,66.568 L68.892,66.568 L68.419,66.909 C68.426,66.484 68.349,66.102 68.188,65.765 C68.027,65.428 67.796,65.164 67.495,64.973 C67.202,64.782 66.85,64.687 66.439,64.687 C66.021,64.687 65.654,64.786 65.339,64.984 C65.024,65.182 64.778,65.457 64.602,65.809 C64.433,66.154 64.349,66.55 64.349,66.997 C64.349,67.444 64.444,67.84 64.635,68.185 C64.833,68.53 65.101,68.801 65.438,68.999 C65.775,69.197 66.164,69.296 66.604,69.296 C66.868,69.296 67.132,69.252 67.396,69.164 C67.667,69.069 67.884,68.951 68.045,68.812 C68.126,68.746 68.217,68.713 68.32,68.713 C68.423,68.706 68.511,68.731 68.584,68.79 C68.679,68.878 68.727,68.973 68.727,69.076 C68.734,69.179 68.694,69.267 68.606,69.34 C68.364,69.545 68.056,69.718 67.682,69.857 C67.308,69.989 66.949,70.055 66.604,70.055 Z" id="Path" fill="#393A3D"></path>
            <path d="M70.985,66.293 C71.007,65.838 71.124,65.431 71.337,65.072 C71.557,64.713 71.839,64.43 72.184,64.225 C72.536,64.02 72.924,63.917 73.35,63.917 C73.687,63.917 73.947,63.965 74.131,64.06 C74.314,64.155 74.384,64.295 74.34,64.478 C74.31,64.588 74.259,64.661 74.186,64.698 C74.12,64.735 74.035,64.749 73.933,64.742 C73.837,64.735 73.727,64.727 73.603,64.72 C73.192,64.683 72.825,64.727 72.503,64.852 C72.187,64.969 71.934,65.153 71.744,65.402 C71.56,65.651 71.469,65.948 71.469,66.293 L70.985,66.293 Z M71.051,70 C70.919,70 70.816,69.963 70.743,69.89 C70.669,69.817 70.633,69.714 70.633,69.582 L70.633,64.401 C70.633,64.269 70.669,64.166 70.743,64.093 C70.816,64.02 70.919,63.983 71.051,63.983 C71.183,63.983 71.285,64.02 71.359,64.093 C71.432,64.166 71.469,64.269 71.469,64.401 L71.469,69.582 C71.469,69.714 71.432,69.817 71.359,69.89 C71.285,69.963 71.183,70 71.051,70 Z" id="Shape" fill="#393A3D"></path>
            <path d="M79.642,70 C79.532,70 79.436,69.963 79.356,69.89 C79.275,69.809 79.235,69.703 79.235,69.571 L79.235,63.994 C79.235,63.481 79.323,63.03 79.499,62.641 C79.675,62.252 79.935,61.952 80.28,61.739 C80.624,61.519 81.046,61.409 81.545,61.409 C81.669,61.409 81.772,61.446 81.853,61.519 C81.933,61.592 81.974,61.684 81.974,61.794 C81.974,61.904 81.933,61.996 81.853,62.069 C81.772,62.142 81.669,62.179 81.545,62.179 C81.215,62.179 80.94,62.256 80.72,62.41 C80.507,62.557 80.346,62.766 80.236,63.037 C80.133,63.301 80.082,63.605 80.082,63.95 L80.082,69.571 C80.082,69.703 80.041,69.809 79.961,69.89 C79.887,69.963 79.781,70 79.642,70 Z M78.531,64.94 C78.413,64.94 78.318,64.907 78.245,64.841 C78.179,64.768 78.146,64.68 78.146,64.577 C78.146,64.467 78.179,64.379 78.245,64.313 C78.318,64.24 78.413,64.203 78.531,64.203 L81.402,64.203 C81.519,64.203 81.611,64.24 81.677,64.313 C81.75,64.379 81.787,64.467 81.787,64.577 C81.787,64.68 81.75,64.768 81.677,64.841 C81.611,64.907 81.519,64.94 81.402,64.94 L78.531,64.94 Z" id="Shape" fill="#393A3D"></path>
            <path d="M85.446,70.055 C84.859,70.055 84.335,69.923 83.873,69.659 C83.411,69.395 83.048,69.032 82.784,68.57 C82.52,68.108 82.388,67.584 82.388,66.997 C82.388,66.403 82.52,65.875 82.784,65.413 C83.048,64.951 83.411,64.588 83.873,64.324 C84.335,64.06 84.859,63.928 85.446,63.928 C86.033,63.928 86.553,64.06 87.008,64.324 C87.47,64.588 87.833,64.951 88.097,65.413 C88.361,65.875 88.497,66.403 88.504,66.997 C88.504,67.584 88.368,68.108 88.097,68.57 C87.833,69.032 87.47,69.395 87.008,69.659 C86.553,69.923 86.033,70.055 85.446,70.055 Z M85.446,69.285 C85.871,69.285 86.253,69.186 86.59,68.988 C86.927,68.79 87.191,68.519 87.382,68.174 C87.573,67.829 87.668,67.437 87.668,66.997 C87.668,66.557 87.573,66.165 87.382,65.82 C87.191,65.468 86.927,65.193 86.59,64.995 C86.253,64.797 85.871,64.698 85.446,64.698 C85.021,64.698 84.639,64.797 84.302,64.995 C83.965,65.193 83.697,65.468 83.499,65.82 C83.308,66.165 83.213,66.557 83.213,66.997 C83.213,67.437 83.308,67.829 83.499,68.174 C83.697,68.519 83.965,68.79 84.302,68.988 C84.639,69.186 85.021,69.285 85.446,69.285 Z" id="Shape" fill="#393A3D"></path>
            <path d="M90.503,66.293 C90.525,65.838 90.643,65.431 90.855,65.072 C91.075,64.713 91.358,64.43 91.702,64.225 C92.054,64.02 92.443,63.917 92.868,63.917 C93.206,63.917 93.466,63.965 93.649,64.06 C93.833,64.155 93.902,64.295 93.858,64.478 C93.829,64.588 93.778,64.661 93.704,64.698 C93.638,64.735 93.554,64.749 93.451,64.742 C93.356,64.735 93.246,64.727 93.121,64.72 C92.711,64.683 92.344,64.727 92.021,64.852 C91.706,64.969 91.453,65.153 91.262,65.402 C91.079,65.651 90.987,65.948 90.987,66.293 L90.503,66.293 Z M90.569,70 C90.437,70 90.335,69.963 90.261,69.89 C90.188,69.817 90.151,69.714 90.151,69.582 L90.151,64.401 C90.151,64.269 90.188,64.166 90.261,64.093 C90.335,64.02 90.437,63.983 90.569,63.983 C90.701,63.983 90.804,64.02 90.877,64.093 C90.951,64.166 90.987,64.269 90.987,64.401 L90.987,69.582 C90.987,69.714 90.951,69.817 90.877,69.89 C90.804,69.963 90.701,70 90.569,70 Z" id="Shape" fill="#393A3D"></path>
            <path d="M101.162,70.11 C100.693,70.11 100.256,70.044 99.853,69.912 C99.457,69.773 99.112,69.578 98.819,69.329 C98.526,69.08 98.302,68.79 98.148,68.46 C98.089,68.343 98.086,68.236 98.137,68.141 C98.196,68.038 98.291,67.969 98.423,67.932 C98.526,67.903 98.625,67.914 98.72,67.965 C98.823,68.016 98.9,68.093 98.951,68.196 C99.061,68.409 99.222,68.599 99.435,68.768 C99.648,68.937 99.901,69.069 100.194,69.164 C100.487,69.252 100.81,69.296 101.162,69.296 C101.551,69.296 101.895,69.234 102.196,69.109 C102.497,68.977 102.731,68.79 102.9,68.548 C103.076,68.299 103.164,67.998 103.164,67.646 C103.164,67.199 102.999,66.814 102.669,66.491 C102.339,66.168 101.822,65.963 101.118,65.875 C100.26,65.772 99.589,65.508 99.105,65.083 C98.621,64.65 98.379,64.122 98.379,63.499 C98.379,63.052 98.496,62.663 98.731,62.333 C98.973,62.003 99.303,61.75 99.721,61.574 C100.139,61.391 100.619,61.299 101.162,61.299 C101.565,61.299 101.932,61.365 102.262,61.497 C102.592,61.622 102.878,61.79 103.12,62.003 C103.369,62.208 103.571,62.436 103.725,62.685 C103.798,62.802 103.82,62.916 103.791,63.026 C103.769,63.136 103.707,63.22 103.604,63.279 C103.494,63.33 103.38,63.338 103.263,63.301 C103.153,63.264 103.069,63.195 103.01,63.092 C102.9,62.923 102.761,62.766 102.592,62.619 C102.431,62.465 102.233,62.344 101.998,62.256 C101.763,62.168 101.481,62.12 101.151,62.113 C100.572,62.113 100.106,62.238 99.754,62.487 C99.402,62.729 99.226,63.085 99.226,63.554 C99.226,63.803 99.292,64.034 99.424,64.247 C99.556,64.452 99.772,64.632 100.073,64.786 C100.381,64.933 100.792,65.043 101.305,65.116 C102.222,65.248 102.9,65.53 103.34,65.963 C103.787,66.388 104.011,66.946 104.011,67.635 C104.011,68.031 103.938,68.383 103.791,68.691 C103.652,68.999 103.45,69.259 103.186,69.472 C102.929,69.677 102.625,69.835 102.273,69.945 C101.928,70.055 101.558,70.11 101.162,70.11 Z" id="Path" fill="#393A3D"></path>
            <path d="M108.049,70 C107.661,70 107.312,69.908 107.004,69.725 C106.704,69.542 106.465,69.292 106.289,68.977 C106.113,68.654 106.025,68.288 106.025,67.877 L106.025,62.498 C106.025,62.373 106.062,62.271 106.135,62.19 C106.216,62.109 106.319,62.069 106.443,62.069 C106.568,62.069 106.671,62.109 106.751,62.19 C106.832,62.271 106.872,62.373 106.872,62.498 L106.872,67.877 C106.872,68.251 106.982,68.559 107.202,68.801 C107.422,69.036 107.705,69.153 108.049,69.153 L108.346,69.153 C108.464,69.153 108.559,69.193 108.632,69.274 C108.706,69.355 108.742,69.457 108.742,69.582 C108.742,69.707 108.698,69.809 108.61,69.89 C108.522,69.963 108.412,70 108.28,70 L108.049,70 Z M105.31,64.94 C105.2,64.94 105.109,64.907 105.035,64.841 C104.962,64.768 104.925,64.68 104.925,64.577 C104.925,64.467 104.962,64.379 105.035,64.313 C105.109,64.24 105.2,64.203 105.31,64.203 L108.115,64.203 C108.225,64.203 108.317,64.24 108.39,64.313 C108.464,64.379 108.5,64.467 108.5,64.577 C108.5,64.68 108.464,64.768 108.39,64.841 C108.317,64.907 108.225,64.94 108.115,64.94 L105.31,64.94 Z" id="Shape" fill="#393A3D"></path>
            <path d="M112.86,70.055 C112.273,70.055 111.749,69.923 111.287,69.659 C110.825,69.395 110.462,69.032 110.198,68.57 C109.934,68.108 109.802,67.584 109.802,66.997 C109.802,66.403 109.934,65.875 110.198,65.413 C110.462,64.951 110.825,64.588 111.287,64.324 C111.749,64.06 112.273,63.928 112.86,63.928 C113.447,63.928 113.967,64.06 114.422,64.324 C114.884,64.588 115.247,64.951 115.511,65.413 C115.775,65.875 115.911,66.403 115.918,66.997 C115.918,67.584 115.782,68.108 115.511,68.57 C115.247,69.032 114.884,69.395 114.422,69.659 C113.967,69.923 113.447,70.055 112.86,70.055 Z M112.86,69.285 C113.285,69.285 113.667,69.186 114.004,68.988 C114.341,68.79 114.605,68.519 114.796,68.174 C114.987,67.829 115.082,67.437 115.082,66.997 C115.082,66.557 114.987,66.165 114.796,65.82 C114.605,65.468 114.341,65.193 114.004,64.995 C113.667,64.797 113.285,64.698 112.86,64.698 C112.435,64.698 112.053,64.797 111.716,64.995 C111.379,65.193 111.111,65.468 110.913,65.82 C110.722,66.165 110.627,66.557 110.627,66.997 C110.627,67.437 110.722,67.829 110.913,68.174 C111.111,68.519 111.379,68.79 111.716,68.988 C112.053,69.186 112.435,69.285 112.86,69.285 Z" id="Shape" fill="#393A3D"></path>
            <path d="M117.917,66.293 C117.939,65.838 118.057,65.431 118.269,65.072 C118.489,64.713 118.772,64.43 119.116,64.225 C119.468,64.02 119.857,63.917 120.282,63.917 C120.62,63.917 120.88,63.965 121.063,64.06 C121.247,64.155 121.316,64.295 121.272,64.478 C121.243,64.588 121.192,64.661 121.118,64.698 C121.052,64.735 120.968,64.749 120.865,64.742 C120.77,64.735 120.66,64.727 120.535,64.72 C120.125,64.683 119.758,64.727 119.435,64.852 C119.12,64.969 118.867,65.153 118.676,65.402 C118.493,65.651 118.401,65.948 118.401,66.293 L117.917,66.293 Z M117.983,70 C117.851,70 117.749,69.963 117.675,69.89 C117.602,69.817 117.565,69.714 117.565,69.582 L117.565,64.401 C117.565,64.269 117.602,64.166 117.675,64.093 C117.749,64.02 117.851,63.983 117.983,63.983 C118.115,63.983 118.218,64.02 118.291,64.093 C118.365,64.166 118.401,64.269 118.401,64.401 L118.401,69.582 C118.401,69.714 118.365,69.817 118.291,69.89 C118.218,69.963 118.115,70 117.983,70 Z" id="Shape" fill="#393A3D"></path>
            <path d="M123.638,72.618 C123.579,72.618 123.513,72.603 123.44,72.574 C123.19,72.464 123.121,72.288 123.231,72.046 L126.784,64.214 C126.894,63.979 127.07,63.913 127.312,64.016 C127.561,64.119 127.631,64.291 127.521,64.533 L123.957,72.365 C123.883,72.534 123.777,72.618 123.638,72.618 Z M124.859,69.813 C124.749,69.864 124.646,69.875 124.551,69.846 C124.455,69.809 124.378,69.736 124.32,69.626 L121.867,64.544 C121.815,64.434 121.808,64.331 121.845,64.236 C121.881,64.141 121.955,64.067 122.065,64.016 C122.175,63.965 122.277,63.957 122.373,63.994 C122.468,64.023 122.541,64.093 122.593,64.203 L125.002,69.285 C125.06,69.395 125.079,69.498 125.057,69.593 C125.035,69.688 124.969,69.762 124.859,69.813 Z" id="Shape" fill="#393A3D"></path>
            <path d="M131.677,70.055 C131.105,70.055 130.588,69.923 130.126,69.659 C129.671,69.395 129.308,69.036 129.037,68.581 C128.773,68.119 128.637,67.602 128.63,67.03 L128.63,61.838 C128.63,61.706 128.667,61.603 128.74,61.53 C128.821,61.449 128.927,61.409 129.059,61.409 C129.184,61.409 129.283,61.449 129.356,61.53 C129.437,61.603 129.477,61.706 129.477,61.838 L129.477,65.072 C129.719,64.727 130.038,64.452 130.434,64.247 C130.837,64.034 131.285,63.928 131.776,63.928 C132.341,63.928 132.847,64.064 133.294,64.335 C133.741,64.599 134.093,64.962 134.35,65.424 C134.614,65.886 134.746,66.407 134.746,66.986 C134.746,67.573 134.61,68.097 134.339,68.559 C134.075,69.021 133.712,69.388 133.25,69.659 C132.788,69.923 132.264,70.055 131.677,70.055 Z M131.677,69.285 C132.102,69.285 132.484,69.186 132.821,68.988 C133.158,68.783 133.422,68.508 133.613,68.163 C133.811,67.818 133.91,67.426 133.91,66.986 C133.91,66.553 133.811,66.165 133.613,65.82 C133.422,65.468 133.158,65.193 132.821,64.995 C132.484,64.797 132.102,64.698 131.677,64.698 C131.259,64.698 130.881,64.797 130.544,64.995 C130.207,65.193 129.943,65.468 129.752,65.82 C129.561,66.165 129.466,66.553 129.466,66.986 C129.466,67.426 129.561,67.818 129.752,68.163 C129.943,68.508 130.207,68.783 130.544,68.988 C130.881,69.186 131.259,69.285 131.677,69.285 Z" id="Shape" fill="#393A3D"></path>
            <path d="M139.146,70.055 C138.56,70.055 138.035,69.923 137.573,69.659 C137.111,69.395 136.748,69.032 136.484,68.57 C136.22,68.108 136.088,67.584 136.088,66.997 C136.088,66.403 136.22,65.875 136.484,65.413 C136.748,64.951 137.111,64.588 137.573,64.324 C138.035,64.06 138.56,63.928 139.146,63.928 C139.733,63.928 140.254,64.06 140.708,64.324 C141.17,64.588 141.533,64.951 141.797,65.413 C142.061,65.875 142.197,66.403 142.204,66.997 C142.204,67.584 142.069,68.108 141.797,68.57 C141.533,69.032 141.17,69.395 140.708,69.659 C140.254,69.923 139.733,70.055 139.146,70.055 Z M139.146,69.285 C139.572,69.285 139.953,69.186 140.29,68.988 C140.628,68.79 140.892,68.519 141.082,68.174 C141.273,67.829 141.368,67.437 141.368,66.997 C141.368,66.557 141.273,66.165 141.082,65.82 C140.892,65.468 140.628,65.193 140.29,64.995 C139.953,64.797 139.572,64.698 139.146,64.698 C138.721,64.698 138.34,64.797 138.002,64.995 C137.665,65.193 137.397,65.468 137.199,65.82 C137.009,66.165 136.913,66.557 136.913,66.997 C136.913,67.437 137.009,67.829 137.199,68.174 C137.397,68.519 137.665,68.79 138.002,68.988 C138.34,69.186 138.721,69.285 139.146,69.285 Z" id="Shape" fill="#393A3D"></path>
            <path d="M146.591,70.055 C146.004,70.055 145.48,69.923 145.018,69.659 C144.556,69.395 144.193,69.032 143.929,68.57 C143.665,68.108 143.533,67.584 143.533,66.997 C143.533,66.403 143.665,65.875 143.929,65.413 C144.193,64.951 144.556,64.588 145.018,64.324 C145.48,64.06 146.004,63.928 146.591,63.928 C147.177,63.928 147.698,64.06 148.153,64.324 C148.615,64.588 148.978,64.951 149.242,65.413 C149.506,65.875 149.641,66.403 149.649,66.997 C149.649,67.584 149.513,68.108 149.242,68.57 C148.978,69.032 148.615,69.395 148.153,69.659 C147.698,69.923 147.177,70.055 146.591,70.055 Z M146.591,69.285 C147.016,69.285 147.397,69.186 147.735,68.988 C148.072,68.79 148.336,68.519 148.527,68.174 C148.717,67.829 148.813,67.437 148.813,66.997 C148.813,66.557 148.717,66.165 148.527,65.82 C148.336,65.468 148.072,65.193 147.735,64.995 C147.397,64.797 147.016,64.698 146.591,64.698 C146.165,64.698 145.784,64.797 145.447,64.995 C145.109,65.193 144.842,65.468 144.644,65.82 C144.453,66.165 144.358,66.557 144.358,66.997 C144.358,67.437 144.453,67.829 144.644,68.174 C144.842,68.519 145.109,68.79 145.447,68.988 C145.784,69.186 146.165,69.285 146.591,69.285 Z" id="Shape" fill="#393A3D"></path>
            <path d="M151.989,67.987 L151.472,67.426 L155.234,64.027 C155.322,63.946 155.414,63.91 155.509,63.917 C155.604,63.917 155.692,63.961 155.773,64.049 C155.854,64.137 155.89,64.232 155.883,64.335 C155.883,64.43 155.839,64.515 155.751,64.588 L151.989,67.987 Z M151.714,70 C151.589,70 151.487,69.963 151.406,69.89 C151.333,69.809 151.296,69.707 151.296,69.582 L151.296,61.827 C151.296,61.702 151.333,61.603 151.406,61.53 C151.487,61.449 151.589,61.409 151.714,61.409 C151.839,61.409 151.938,61.449 152.011,61.53 C152.092,61.603 152.132,61.702 152.132,61.827 L152.132,69.582 C152.132,69.707 152.092,69.809 152.011,69.89 C151.938,69.963 151.839,70 151.714,70 Z M155.784,69.945 C155.689,70.026 155.59,70.059 155.487,70.044 C155.384,70.037 155.296,69.985 155.223,69.89 L152.77,66.876 L153.364,66.348 L155.839,69.395 C155.912,69.483 155.945,69.578 155.938,69.681 C155.931,69.776 155.879,69.864 155.784,69.945 Z" id="Shape" fill="#393A3D"></path>
        </g>
    </g>
</svg>